<?xml version="1.0" encoding="UTF-8" standalone="no"?>
<!-- Created with Inkscape (http://www.inkscape.org/) -->

<svg
   width="16"
   height="16"
   viewBox="0 0 16 16"
   version="1.1"
   id="svg1"
   inkscape:version="1.4 (86a8ad7, 2024-10-11)"
   sodipodi:docname="nyvideo.svg"
   xmlns:inkscape="http://www.inkscape.org/namespaces/inkscape"
   xmlns:sodipodi="http://sodipodi.sourceforge.net/DTD/sodipodi-0.dtd"
   xmlns="http://www.w3.org/2000/svg"
   xmlns:svg="http://www.w3.org/2000/svg">
  <sodipodi:namedview
     id="namedview1"
     pagecolor="#ffffff"
     bordercolor="#666666"
     borderopacity="1.0"
     inkscape:showpageshadow="2"
     inkscape:pageopacity="0.0"
     inkscape:pagecheckerboard="0"
     inkscape:deskcolor="#d1d1d1"
     inkscape:document-units="px"
     inkscape:zoom="72.9375"
     inkscape:cx="8"
     inkscape:cy="9.0968295"
     inkscape:window-width="2560"
     inkscape:window-height="1369"
     inkscape:window-x="-8"
     inkscape:window-y="-8"
     inkscape:window-maximized="1"
     inkscape:current-layer="layer1" />
  <defs
     id="defs1" />
  <g
     inkscape:label="Layer 1"
     inkscape:groupmode="layer"
     id="layer1">
    <rect
       style="fill:#ffffff;stroke-width:0.2;stroke-linecap:round;stroke-linejoin:miter;paint-order:normal;fill-opacity:1"
       id="rect3"
       width="15.24593"
       height="12.325622"
       x="0.53470439"
       y="1.7686375"
       ry="0.23993145" />
    <path
       id="rect1"
       style="fill:#55d400;stroke-width:0.21715;stroke-linecap:round"
       d="m 3.8143092,1.6050269 c -1.3616611,0 -2.4570313,1.0953703 -2.4570313,2.4570313 v 8.6582028 c 0,0.98089 0.5712893,1.819999 1.3984375,2.214844 2.147e-4,-0.0059 -5.091e-4,-0.01172 0,-0.01758 0.00662,-0.07609 0.044446,-0.26523 0.054687,-0.34375 0.00653,-0.05005 0.00714,-0.100331 0.013672,-0.150391 0.00719,-0.05513 0.020724,-0.108862 0.027344,-0.164062 0.0071,-0.05916 0.0058,-0.120628 0.013672,-0.179688 0.021112,-0.158334 0.068183,-0.351057 0.095703,-0.505859 0.020253,-0.113921 0.032424,-0.230206 0.054688,-0.34375 0.015523,-0.07917 0.1450556,-0.615379 0.1660156,-0.699219 0.085204,-0.340818 0.1779262,-0.679699 0.2871094,-1.013672 0.039072,-0.119516 0.084724,-0.237664 0.1230468,-0.357422 0.034822,-0.108817 0.061624,-0.219072 0.095703,-0.328125 0.034485,-0.110353 0.075739,-0.220076 0.1113281,-0.330078 0.064956,-0.200773 0.1265325,-0.402716 0.1914062,-0.6035153 0.031101,-0.096265 0.068191,-0.1897583 0.095703,-0.2871094 0.031954,-0.1130689 0.05461,-0.2275438 0.082031,-0.3417969 l 0.082031,-0.34375 C 4.2772768,8.8110864 4.2974941,8.6958937 4.3318873,8.5835426 4.4183556,8.3010795 4.492644,8.1745893 4.6346217,7.9116676 4.6968416,7.7964456 4.7603288,7.6811919 4.8260279,7.5679176 4.8928772,7.4526601 4.9604886,7.3391087 5.0311061,7.2261207 5.0976162,7.1197043 5.1695855,7.0148273 5.2381373,6.9097144 5.3842419,6.6856875 5.5314622,6.463113 5.6756373,6.2378394 5.9047819,5.879801 6.1285087,5.5143 6.3338404,5.1421363 6.5011501,4.8388875 6.6273653,4.5930798 6.7732935,4.276902 6.8401867,4.1319667 6.9024212,3.9863793 6.9646998,3.839402 7.0166835,3.7167203 7.0672597,3.5926679 7.1150904,3.4683082 7.2875434,3.0199304 7.1793562,3.2503735 7.3494654,2.8647926 7.3927435,2.7666956 7.4748318,2.5956269 7.5271998,2.495652 c 0.021833,-0.04168 0.042259,-0.083897 0.068359,-0.1230469 0.0198,-0.029699 0.047365,-0.053164 0.068359,-0.082031 0.015674,-0.021551 0.027306,-0.047462 0.041016,-0.070312 0.027421,0.00914 0.05399,0.020334 0.082031,0.027344 0.00784,0.00196 0.091693,6.684e-4 0.095703,0 0.014255,-0.00237 0.026709,-0.011632 0.041016,-0.013672 0.018097,-0.00259 0.038502,0.00227 0.056641,0 0.018697,-0.00234 0.036034,-0.011007 0.054687,-0.013672 0.013572,-0.00194 0.027306,0 0.041016,0 h 0.1367188 0.1367187 c 0.022851,0 0.045622,-0.00227 0.068359,0 0.023188,0.00232 0.045172,0.011353 0.068359,0.013672 0.045475,0.00455 0.091297,-0.00505 0.1367187,0 0.018727,0.00208 0.038361,0.0091 0.056641,0.013672 0.018281,0.00457 0.037192,0.00667 0.054688,0.013672 0.028464,0.011386 0.05322,0.032492 0.082031,0.042969 0.0219,0.00796 0.045611,0.00862 0.068359,0.013672 0.018394,0.00409 0.03657,0.00849 0.054687,0.013672 0.013896,0.00397 0.026709,0.011632 0.041016,0.013672 0.018097,0.00259 0.036407,0 0.054687,0 0.01371,0.00457 0.026761,0.011292 0.041016,0.013672 0.032264,0.00538 0.077847,-0.00631 0.109375,0 0.010021,0.002 0.017323,0.011672 0.027344,0.013672 0.013444,0.00269 0.027715,-0.00333 0.041016,0 0.00627,0.00157 0.00754,0.011632 0.013672,0.013672 0.00867,0.00289 0.018474,-0.00222 0.027344,0 0.00991,0.00248 0.017654,0.010442 0.027344,0.013672 0.017877,0.00596 0.03836,0.0091 0.056641,0.013672 0.00914,0 0.018474,-0.00222 0.027344,0 0.019828,0.00496 0.035298,0.020884 0.054687,0.027344 0.00863,0.00288 0.056001,0 0.068359,0 0.027824,0 0.099322,0.00297 0.1230469,0 0.018697,-0.00234 0.03621,-0.00997 0.054687,-0.013672 0.00448,-8.963e-4 0.00958,-0.00204 0.013672,0 0.022531,0.011266 0.014712,0.035741 0.027344,0.054687 0.00253,0.0038 0.011632,-0.00409 0.013672,0 0.00613,0.012263 -0.00613,0.028753 0,0.041016 0.00289,0.00578 0.010782,0.00789 0.013672,0.013672 0.00204,0.00409 -0.00204,0.00958 0,0.013672 0.00289,0.00578 0.010782,0.00789 0.013672,0.013672 0.00204,0.00409 -0.00323,0.010442 0,0.013672 0.00323,0.00323 0.011632,-0.00409 0.013672,0 0.00409,0.00818 -0.00222,0.018474 0,0.027344 0.00248,0.00991 0.011192,0.017434 0.013672,0.027344 0.00222,0.00887 -0.00289,0.018674 0,0.027344 0.00204,0.00613 0.010782,0.00789 0.013672,0.013672 0.00204,0.00409 -0.00111,0.00924 0,0.013672 0.00351,0.01402 0.010162,0.026996 0.013672,0.041016 0.00111,0.00443 0,0.0091 0,0.013672 v 0.054687 c 0,0.00914 -0.00222,0.018474 0,0.027344 0.00248,0.00991 0.011192,0.017434 0.013672,0.027344 0.00443,0.017734 -0.00301,0.036655 0,0.054687 0.0031,0.018586 0.011012,0.036033 0.013672,0.054687 0.00388,0.027145 -0.00388,0.056839 0,0.083984 0.00267,0.018653 0.011592,0.03596 0.013672,0.054687 0.025477,0.2292991 -0.03479,-0.1161501 0.013672,0.1503906 0.011574,0.063657 0.022094,0.095753 0.027344,0.1640625 0.0021,0.02734 0,0.05461 0,0.082031 v 0.095703 0.2753906 0.3828125 0.1386719 c 0,0.041131 0.00216,0.081973 0,0.1230469 -0.00241,0.045866 -0.011492,0.090842 -0.013672,0.1367187 -0.00478,0.1004289 0.00478,0.2003524 0,0.3007813 -0.00218,0.045877 -0.011262,0.092806 -0.013672,0.1386718 -0.00456,0.086712 0.00434,0.1730416 0,0.2597656 -0.00229,0.045872 -0.00932,0.090997 -0.013672,0.1367188 -0.00479,0.050251 -0.0091,0.1001196 -0.013672,0.1503906 -0.013708,0.1507868 -0.02595,0.3024685 -0.041016,0.453125 -0.00412,0.041179 -0.011492,0.08172 -0.013672,0.1230469 -0.0024,0.045638 0.0024,0.091081 0,0.1367187 -0.00217,0.041327 -0.00955,0.083821 -0.013672,0.125 -0.00502,0.050228 -0.0091,0.1001197 -0.013672,0.1503907 -0.00457,0.050271 -0.011482,0.09996 -0.013672,0.1503906 -0.00238,0.05479 0.00455,0.1094105 0,0.1640625 -0.00462,0.055406 -0.019834,0.1089745 -0.027344,0.1640625 -0.00621,0.045508 -0.00779,0.09312 -0.013672,0.1386719 -0.012406,0.09615 -0.02935,0.1908663 -0.041016,0.2871094 -0.00662,0.054632 -0.00623,0.1095354 -0.013672,0.1640624 -0.013201,0.096802 -0.045507,0.1915066 -0.054687,0.2890626 -0.00712,0.054569 -0.00655,0.1094935 -0.013672,0.1640624 -0.00661,0.050666 -0.018594,0.1000507 -0.027344,0.1503907 -0.019052,0.1095514 -0.037779,0.2201752 -0.054687,0.3300781 -0.029475,0.1915888 -0.054617,0.3823229 -0.082031,0.5742188 -0.01828,0.1279633 -0.039871,0.256355 -0.054687,0.3847656 -0.00631,0.054669 -0.00711,0.1094225 -0.013672,0.1640625 -0.00716,0.059682 -0.019884,0.1180883 -0.027344,0.1777343 -0.00626,0.050089 -0.012665,0.1019516 -0.015625,0.1523436 -0.00161,0.02737 0,0.05461 0,0.08203 0,0.0046 -0.00457,0.01367 0,0.01367 0.00646,0 0.012735,-0.0079 0.015625,-0.01367 0.00646,-0.01293 0.00798,-0.02773 0.013672,-0.04101 0.026316,-0.06141 0.033691,-0.05949 0.068359,-0.123047 0.044013,-0.08069 0.079034,-0.1673569 0.1230469,-0.2480469 0.01276,-0.023395 0.028256,-0.044965 0.041016,-0.068359 0.043207,-0.079212 0.057786,-0.1063226 0.058594,-0.109375 -0.00262,0.00469 -0.02865,0.04672 0.037109,-0.068359 0.023068,-0.041009 0.048641,-0.080326 0.068359,-0.1230469 0.03521,-0.076287 0.063387,-0.156817 0.095703,-0.234375 0.013386,-0.032128 0.027306,-0.063712 0.041016,-0.095703 0.01371,-0.031991 0.024515,-0.065058 0.041016,-0.095703 0.015625,-0.029016 0.040878,-0.052109 0.054687,-0.082031 0.013943,-0.030209 0.016822,-0.064139 0.027343,-0.095703 0.01235,-0.037043 0.02926,-0.072814 0.04297,-0.109375 0.02168,-0.057804 0.06706,-0.176618 0.08203,-0.234375 0.02115,-0.081572 0.03425,-0.1643407 0.05469,-0.2460937 0.01157,-0.046289 0.03051,-0.090177 0.04102,-0.1367188 0.02152,-0.095299 0.03381,-0.1936215 0.05469,-0.2890625 0.01114,-0.050904 0.02786,-0.099971 0.04102,-0.1503906 0.01427,-0.054699 0.02632,-0.1094765 0.04101,-0.1640625 0.0173,-0.064254 0.03855,-0.1268512 0.05469,-0.1914063 0.01587,-0.063481 0.02731,-0.1293773 0.04101,-0.1933593 0.113837,-0.5312406 -0.02966,0.1334608 0.08203,-0.3691407 0.01419,-0.063876 0.02515,-0.1279262 0.04101,-0.1914062 0.01614,-0.064555 0.03908,-0.1286754 0.05469,-0.1933594 0.0164,-0.067958 0.02406,-0.1372561 0.04102,-0.2050781 0.01507,-0.060304 0.04191,-0.1173444 0.05664,-0.1777344 0.03101,-0.1271413 0.05303,-0.2571515 0.08203,-0.3847656 0.0167,-0.073498 0.03641,-0.145628 0.05469,-0.21875 0.02471,-0.09885 0.07967,-0.3255275 0.109374,-0.4257813 0.01642,-0.055426 0.03707,-0.1090045 0.05469,-0.1640624 0.06145,-0.1920494 0.0482,-0.1764834 0.123047,-0.3710938 0.02133,-0.055452 0.0463,-0.1089005 0.06836,-0.1640625 0.08312,-0.2078068 0.04638,-0.1384198 0.136719,-0.328125 0.04185,-0.087882 0.08927,-0.1777418 0.138672,-0.2617187 0.02186,-0.037162 0.04172,-0.075473 0.06836,-0.109375 0.02396,-0.030492 0.05594,-0.053337 0.08203,-0.082031 0.01968,-0.021653 0.03282,-0.048918 0.05469,-0.068359 0.01992,-0.017704 0.04619,-0.026234 0.06836,-0.041016 0.06674,-0.044498 0.05095,-0.050843 0.136719,-0.082031 0.0219,-0.00796 0.04543,-0.0095 0.06836,-0.013672 0.02735,-0.00497 0.05431,-0.011542 0.08203,-0.013672 0.03189,-0.00245 0.06567,0 0.09766,0 h 0.08203 0.01367 c 0.0046,0 0.01047,-0.00323 0.01367,0 0.0032,0.00323 0,0.0091 0,0.013672 v 0.041016 0.21875 c 0,0.041131 0.0037,0.082085 0,0.1230469 -0.0025,0.027685 -0.0086,0.056661 -0.01367,0.083984 -0.0086,0.045808 -0.01774,0.091112 -0.02734,0.1367188 -0.0087,0.04123 -0.02074,0.081428 -0.02734,0.1230469 -0.01162,0.073575 -0.01087,0.1583048 -0.02734,0.2324219 -0.07936,0.3573275 -0.0048,-0.063543 -0.08398,0.3164062 -0.01134,0.054429 -0.01784,0.1092865 -0.02734,0.1640625 -0.0087,0.05034 -0.01824,0.1001196 -0.02734,0.1503906 -0.01371,0.036561 -0.03282,0.071195 -0.04102,0.109375 -0.0058,0.026812 0.002,0.05468 0,0.082031 -0.0026,0.036752 -0.01147,0.074546 -0.01367,0.1113281 -0.0024,0.04106 0,0.081916 0,0.1230469 v 0.082031 c 0,0.027421 -0.0027,0.054746 0,0.082031 0.0019,0.01875 0.01027,0.036148 0.01367,0.054687 0.01237,0.068043 0.01377,0.1372651 0.02734,0.2050781 0.002,0.010021 0.01167,0.017323 0.01367,0.027344 0.0027,0.013444 -0.0033,0.027715 0,0.041016 0.0016,0.00627 0.01207,0.0074 0.01367,0.013672 0.0087,0.034798 0.01133,0.047847 0.0098,0.050781 v 0.00195 c 0.0053,0.00929 0.007,0.01009 0.01758,0.03125 0.01691,0.033771 -0.03984,-0.012492 0.01367,0.041016 0.0072,0.00723 0.02094,0.00569 0.02734,0.013672 0.10341,0.129263 -0.02637,-0.0083 0.04297,0.095703 0.0025,0.0038 0.01047,-0.00323 0.01367,0 0.0032,0.00323 -0.0011,0.00924 0,0.013672 0.0035,0.01402 0.0057,0.028991 0.01367,0.041016 0.0025,0.0038 0.01047,-0.00323 0.01367,0 7.3e-5,7.31e-5 -1.15e-4,0.040557 0,0.041016 0.0025,0.00991 0.0099,0.017854 0.01367,0.027344 0.03976,0.099408 -9.79e-4,-0.00489 0.01367,0.068359 0.0057,0.028343 0.02324,0.053418 0.02734,0.082031 0.0045,0.03167 -0.0045,0.064034 0,0.095703 0.0027,0.018653 0.01137,0.035989 0.01367,0.054687 0.0023,0.01814 -0.0026,0.03659 0,0.054687 0.0047,0.032937 0.02964,0.062786 0.02734,0.097656 0.0025,0.022711 -0.0021,0.045602 0,0.068359 0.01901,0.2086658 0.01367,-0.055188 0.01367,0.1777344 0.01751,0.2270711 0.01367,-0.046465 0.01367,0.1503906 v 0.3710938 0.068359 c 0,0.022851 0.0019,0.045587 0,0.068359 -0.0027,0.032204 -0.01147,0.063459 -0.01367,0.095703 -0.0024,0.03648 0.0045,0.073096 0,0.109375 -0.0047,0.037395 -0.02074,0.072262 -0.02734,0.109375 -0.02852,0.1615889 9.96e-4,0.079016 -0.02734,0.2207032 -0.0074,0.036954 -0.02044,0.072334 -0.02734,0.109375 -0.0068,0.036214 -0.0065,0.073245 -0.01367,0.109375 -0.0065,0.032625 -0.01924,0.063425 -0.02734,0.095703 -0.0056,0.022607 -0.008,0.045752 -0.01367,0.068359 -0.07576,0.3030529 0.0139,-0.071055 -0.05664,0.1640626 -0.0067,0.02232 -0.0063,0.048205 -0.01367,0.070312 -0.0065,0.019389 -0.01884,0.036081 -0.02734,0.054688 -0.0144,0.031686 -0.02931,0.062926 -0.04102,0.095703 -0.01119,0.031333 -0.01615,0.06437 -0.02734,0.095703 -0.01171,0.032778 -0.02809,0.063387 -0.04101,0.095703 -0.03585,0.089642 -0.05479,0.1560958 -0.0957,0.2460938 -0.124915,0.2748011 -0.04254,0.055516 -0.136719,0.3027343 -0.01904,0.049988 -0.0352,0.1005767 -0.05469,0.1503907 -0.02165,0.055327 -0.04629,0.1089005 -0.06836,0.1640625 -0.02364,0.059102 -0.04472,0.1205855 -0.06836,0.1796875 -0.02206,0.055162 -0.0463,0.1089009 -0.06836,0.1640629 -0.02364,0.0591 -0.04551,0.11911 -0.07031,0.177734 -0.02549,0.06026 -0.05653,0.117471 -0.08203,0.177734 -0.0248,0.05862 -0.04356,0.121064 -0.06836,0.179688 -0.02549,0.06026 -0.05461,0.118322 -0.08203,0.177734 l -0.08203,0.177735 c -0.02742,0.05941 -0.05277,0.119208 -0.08203,0.177734 -0.03017,0.06035 -0.06643,0.118887 -0.0957,0.179687 -0.0302,0.06272 -0.05183,0.128686 -0.08203,0.191406 -0.02927,0.0608 -0.06643,0.116935 -0.0957,0.177735 -0.138832,0.288348 -0.02407,0.09539 -0.166016,0.357422 -0.03024,0.05583 -0.06546,0.108232 -0.0957,0.164062 -0.05841,0.107827 -0.105656,0.220298 -0.164062,0.328125 -0.03024,0.05583 -0.06641,0.109686 -0.0957,0.166016 -0.173149,0.332959 0.0183,0.02724 -0.191407,0.341797 -0.0309,0.05296 -0.054915,0.110072 -0.083984,0.164062 -0.034937,0.06488 -0.073777,0.12884 -0.109375,0.19336 -0.037531,0.06803 -0.069767,0.138238 -0.109375,0.205078 -0.033602,0.0567 -0.072814,0.109222 -0.109375,0.164062 -0.036561,0.05484 -0.070608,0.110763 -0.109375,0.164063 -0.034423,0.04733 -0.074259,0.09185 -0.109375,0.138672 -0.1334679,0.177957 -0.121004,0.199349 -0.3027344,0.410156 -0.040146,0.04657 -0.090036,0.08304 -0.1367188,0.123047 -0.047345,0.04058 -0.2141315,0.177753 -0.2734375,0.220703 -0.149228,0.108062 -0.2464768,0.183786 -0.3984375,0.259766 -0.010198,0.0051 -0.020934,0.0087 -0.03125,0.01367 H 11.67759 c 1.361661,0 2.457031,-1.09537 2.457031,-2.457031 V 4.0620582 c 0,-1.361661 -1.09537,-2.4570313 -2.457031,-2.4570313 z m 3.8769531,3.7832032 c -0.00578,0.00289 -0.0091,0.0091 -0.013672,0.013672 -0.054044,0.054044 -0.00972,0.00382 -0.068359,0.109375 -0.008,0.014404 -0.019974,0.026278 -0.027344,0.041016 -0.011007,0.022013 -0.017344,0.045869 -0.027344,0.068359 -0.0083,0.018677 -0.018204,0.036407 -0.027344,0.054687 -0.00914,0.01828 -0.016292,0.037496 -0.027344,0.054688 -0.030167,0.046926 -0.065537,0.091747 -0.095703,0.1386718 -0.076421,0.1188787 0.030214,-0.018934 -0.054687,0.1367188 -0.031562,0.057863 -0.1002611,0.092367 -0.1113281,0.1640625 -0.011007,0.022013 -0.017874,0.045641 -0.027344,0.068359 -0.07064,0.1695375 -0.012829,0.020539 -0.082031,0.2050782 -0.01371,0.036561 -0.026514,0.075074 -0.041016,0.1113281 -0.012926,0.032316 -0.03001,0.062684 -0.041016,0.095703 -0.011918,0.035752 -0.016103,0.073404 -0.027344,0.109375 -0.042272,0.1352717 -0.1113936,0.2619461 -0.1503906,0.3984375 -0.012804,0.044813 -0.015483,0.091647 -0.027344,0.1367188 -0.011034,0.041928 -0.027306,0.081916 -0.041016,0.1230469 -0.01371,0.041131 -0.026028,0.082364 -0.041016,0.1230468 -0.017016,0.046187 -0.038428,0.090261 -0.054687,0.1367188 -0.015762,0.045035 -0.02471,0.091878 -0.041016,0.1367187 -0.1502952,0.4133118 0.00653,-0.08096 -0.125,0.3300781 -0.1054629,0.3295773 -0.00455,0.021755 -0.109375,0.3828126 -0.02136,0.073571 -0.047,0.1471321 -0.068359,0.2207031 -0.01978,0.068134 -0.034906,0.1369441 -0.054687,0.2050781 -0.080478,0.277202 -0.053022,0.1579504 -0.1367188,0.4257812 -0.024155,0.077296 -0.043375,0.1553889 -0.068359,0.2324219 -0.1077117,0.3321109 -0.072808,0.1968483 -0.1777343,0.4941407 -0.028859,0.08177 -0.053792,0.164808 -0.083984,0.246094 -0.029254,0.07876 -0.063712,0.15473 -0.095703,0.232422 l -0.095703,0.234375 c -0.088228,0.214267 -0.1737076,0.429386 -0.2597656,0.644531 -0.027421,0.06855 -0.056107,0.135948 -0.082031,0.205078 -0.028929,0.07714 -0.053102,0.155282 -0.082031,0.232422 -0.2029677,0.541248 0.074525,-0.269191 -0.2480469,0.658203 -0.020421,0.05871 -0.03378,0.121147 -0.054687,0.179687 -0.024832,0.06953 -0.05461,0.136528 -0.082031,0.205078 -0.032399,0.081 -0.1187056,0.294093 -0.1503906,0.382813 -0.024304,0.06805 -0.042732,0.139471 -0.068359,0.207031 -0.024687,0.06509 -0.05461,0.127426 -0.082031,0.191406 -0.022851,0.05941 -0.048205,0.118045 -0.070312,0.177735 -0.089177,0.240777 -0.037743,0.140172 -0.1503907,0.357422 -0.035763,0.06897 -0.073681,0.136068 -0.109375,0.205078 -0.077571,0.149972 -0.125872,0.267631 -0.21875,0.412109 -0.070312,0.109374 -0.1595819,0.211293 -0.2578125,0.296875 0.027483,9.01e-4 0.054322,0.0039 0.082031,0.0039 h 4.0683593 c -0.02569,-0.01401 -0.04526,-0.03672 -0.068359,-0.05469 -0.068357,-0.05317 -0.1117898,-0.07681 -0.1367188,-0.164063 -0.00518,-0.01812 -0.011592,-0.03596 -0.013672,-0.05469 -0.00252,-0.02271 0,-0.04551 0,-0.06836 v -0.08398 -0.136719 c 0,-0.02285 -0.00207,-0.0456 0,-0.06836 0.00252,-0.02768 0.011542,-0.05431 0.013672,-0.08203 0.00245,-0.03189 -0.00245,-0.0638 0,-0.0957 0.00213,-0.02772 0.00944,-0.05456 0.013672,-0.08203 0.00491,-0.03194 0.0091,-0.06371 0.013672,-0.0957 0.00457,-0.03199 0.0094,-0.06563 0.013672,-0.09766 0.00487,-0.03652 0.00727,-0.0731 0.013672,-0.109375 0.017919,-0.101538 0.048138,-0.199676 0.068359,-0.300781 0.021808,-0.109036 0.031066,-0.22142 0.054687,-0.330078 0.011069,-0.05091 0.030388,-0.09938 0.041016,-0.150391 0.01226,-0.05885 0.015084,-0.118884 0.027344,-0.177734 0.037537,-0.180178 0.038857,-0.11098 0.083984,-0.273438 0.011277,-0.04059 0.016621,-0.08425 0.027344,-0.125 0.012143,-0.04614 0.03088,-0.0901 0.041016,-0.136719 0.01277,-0.05874 0.014749,-0.118954 0.027344,-0.177734 0.014866,-0.06937 0.039526,-0.135768 0.054687,-0.205078 0.033718,-0.15414 0.050213,-0.312254 0.082031,-0.466797 0.016094,-0.07817 0.039981,-0.153972 0.054687,-0.232422 0.028652,-0.152812 0.059389,-0.558408 0.068359,-0.644531 0.00764,-0.07329 0.021584,-0.147238 0.027344,-0.220703 0.012528,-0.159725 0.018454,-0.318547 0.027344,-0.478516 0.017153,-0.3087402 0.010731,-0.2195159 0.027344,-0.5351559 0.00803,-0.1525979 0.017158,-0.3140103 0.027344,-0.4667969 l 0.027344,-0.3828125 c 0.00228,-0.063941 0,-0.1293774 0,-0.1933594 V 8.0757301 7.5405738 c -1e-7,-0.054842 0.00228,-0.1092685 0,-0.1640625 -0.00617,-0.1480044 -0.01892,-0.1945999 -0.041016,-0.34375 -0.00947,-0.063934 -0.018204,-0.1274242 -0.027344,-0.1914062 L 8.4041529,6.6499488 C 8.3995829,6.5951074 8.397921,6.5404133 8.3904811,6.4858863 8.3841841,6.4397076 8.3704073,6.3932504 8.3631373,6.3472144 8.3566873,6.3063371 8.3611424,6.2638706 8.3494654,6.2241676 8.3379314,6.1849517 8.3107049,6.1524386 8.2947779,6.1147926 8.1389141,5.7463879 8.2669616,5.9889332 8.1170435,5.7163551 8.0943676,5.6751268 8.0743272,5.6327592 8.0486842,5.5933082 7.9760556,5.4815716 7.9356232,5.3994791 7.8006373,5.3882301 c -0.031881,-0.00266 -0.063712,0 -0.095703,0 -0.00457,0 -0.00958,-0.00204 -0.013672,0 z" />
    <path
       style="fill:none;stroke:#000000;stroke-width:1px;stroke-linecap:round;stroke-linejoin:miter;stroke-opacity:1"
       d="M 13.230505,4.6889461 C 12.315215,4.6380966 12.089013,4.2528999 10.707797,4.1542417 10.589189,4.1457696 10.470122,4.145811 10.351328,4.1405313 9.6326215,4.1085888 9.6073113,4.0910304 9.0214224,4.0994002 8.8522834,4.1018165 8.6826943,4.0988665 8.5141388,4.1131106 8.3384304,4.1279592 7.7367536,4.2350166 7.5681234,4.2639246 6.3055379,4.4803679 7.8838358,4.2105648 6.5946872,4.4284491 6.434669,4.4554944 6.2735096,4.4767073 6.1148243,4.5107113 5.94541,4.5470143 5.3187847,4.7181832 5.1550985,4.7712083 4.9886893,4.8251155 4.8262575,4.8906101 4.6615253,4.9494431 4.5063468,5.0048639 4.3493559,5.0553072 4.1953727,5.1139675 4.1124407,5.1455606 3.5151389,5.3939901 3.4275921,5.4430163 3.315872,5.5055795 3.2139058,5.584521 3.1122536,5.6623822 2.9989075,5.7492005 2.8876603,5.8392561 2.7832048,5.9365896 2.6125449,6.0956136 2.2994919,6.4615979 2.1662382,6.622108 2.0768804,6.7297435 1.9738277,6.8289503 1.9057412,6.9511569 1.7404358,7.2478589 1.6481397,7.4838381 1.5766924,7.7874893 c -0.020324,0.086377 -0.048036,0.1720227 -0.054841,0.260497 -0.025568,0.3323885 0.047856,0.3410397 0.2193659,0.6718081 0.059278,0.1143223 0.165421,0.2146213 0.1782348,0.3427592 0.016231,0.1623125 -0.060924,0.3205507 -0.095973,0.4798629 -0.041324,0.187835 -0.068629,0.1998411 -0.082262,0.3838903 -0.00473,0.063807 -0.013406,0.1293832 0,0.1919452 0.033381,0.155778 0.1262249,0.259219 0.2330762,0.37018 0.1567789,0.162809 0.2491218,0.233223 0.4387318,0.356469 0.1031741,0.06706 0.2061283,0.13524 0.3153385,0.191946 0.4358492,0.226306 1.1410784,0.441881 1.5218509,0.562125 0.4761797,0.150372 0.9576025,0.264136 1.4532991,0.329048 1.1164436,0.146201 1.3210985,0.162472 2.23479,0.191946 0.5765385,0.0186 0.6316595,0.01371 1.2202228,0.01371 0.4305107,0 0.6611044,0.0052 1.0831191,-0.01371 0.137271,-0.0061 0.274928,-0.01067 0.411311,-0.02742 0.124556,-0.0153 0.246814,-0.04555 0.37018,-0.06855 0.319034,-0.05948 0.511652,-0.09234 0.822622,-0.164524 0.128485,-0.02983 0.255291,-0.06664 0.38389,-0.09597 0.427672,-0.09754 0.862971,-0.154046 1.288775,-0.260497 0.244958,-0.06124 0.440768,-0.128058 0.671808,-0.233076 0.184475,-0.08385 0.369979,-0.192649 0.520994,-0.329049 0.109305,-0.09873 0.232544,-0.274722 0.287918,-0.411311 0.081,-0.199809 0.112035,-0.44919 0.137103,-0.6580977 0.01658,-0.1381538 0.04605,-0.4741224 0.02742,-0.6169665 -0.01462,-0.112109 -0.03392,-0.2268455 -0.08226,-0.3290489 C 14.968461,8.6866534 14.835682,8.4560645 14.683804,8.2399315 14.525166,8.0141776 14.174896,7.7440044 13.957155,7.5955442 13.797847,7.4869251 13.635102,7.3819943 13.463582,7.2939161 13.29596,7.2078399 13.117361,7.1449812 12.942588,7.0745502 12.446868,6.8747828 12.664573,6.9696867 12.188517,6.8140532 12.069001,6.7749807 11.95092,6.7316501 11.832048,6.6906598 11.657222,6.6303751 11.220677,6.4736218 11.023136,6.4301628 10.801222,6.3813418 10.654665,6.3907452 10.43359,6.3753214 10.328337,6.3679781 10.223039,6.3602285 10.118252,6.3479006 9.9898747,6.3327974 9.8625516,6.3096764 9.7343616,6.2930592 9.4434159,6.255344 9.3031506,6.2382177 9.0077121,6.2382177 c -0.1802102,0 -0.7970673,0.02996 -0.9460155,0.041131 -0.1922736,0.01442 -0.3836154,0.039723 -0.5758354,0.054842 -0.2145703,0.016876 -0.4298399,0.023967 -0.6443874,0.041131 -0.3167335,0.025339 -0.9934999,0.09284 -1.3299057,0.1371037 -0.1467534,0.01931 -0.2924346,0.046045 -0.4387318,0.068552 -0.09135,0.014054 -0.1823178,0.031197 -0.2742074,0.041131 -0.077375,0.00836 -0.1572976,-0.00402 -0.2330762,0.01371 C 4.2134573,6.7182234 4.2103027,6.7475255 3.9485861,6.882605 3.8759391,6.9201 3.8013551,6.953816 3.7292202,6.992288 3.6641992,7.026966 3.5989994,7.061716 3.537275,7.1019709 c -0.070227,0.0458 -0.1456081,0.089959 -0.1645244,0.1782348 -0.027782,0.1296493 0.02573,0.1518524 0.109683,0.260497 0.039716,0.051397 0.082581,0.1002839 0.1233933,0.150814 0.055161,0.068295 0.1085529,0.1380233 0.1645244,0.2056556 0.053727,0.06492 0.1029853,0.1343762 0.1645244,0.1919451 0.2482733,0.2322557 0.5678187,0.4062351 0.891174,0.5072837 0.1026714,0.032085 0.2095403,0.049119 0.3153385,0.068552 0.1917689,0.035223 0.5840808,0.085722 0.7677806,0.109683 0.1781842,0.023241 0.3558312,0.0514 0.5347044,0.068552 0.3699196,0.035472 0.5158213,0.027421 0.8774635,0.027421 0.109683,0 0.2195028,0.00548 0.3290489,0 0.073599,-0.00368 0.146066,-0.019838 0.2193659,-0.027421 0.322443,-0.033356 0.042993,-0.00133 0.3153385,-0.01371 0.054975,-0.0025 0.1096263,-0.00988 0.1645244,-0.01371 0.1416241,-0.00988 0.2831579,-0.021965 0.4250214,-0.027421 0.1681542,-0.00647 0.3935355,0.00137 0.5621251,0.01371 0.09615,0.00704 0.1919452,0.01828 0.2879177,0.027421 0.2308021,0.021981 0.3469665,0.0285 0.5758354,0.068552 0.247302,0.043278 0.213083,0.068971 0.425022,0.054841 0.01442,-9.613e-4 0.0321,-0.00243 0.04113,-0.01371 0.08436,-0.1054459 1.320033,-0.038189 1.658955,-0.068553"
       id="path1"
       sodipodi:nodetypes="csssssssssssssssssssscsssssssscsscssssssssssssssssssssssssccssssssssssssssssscsssscc" />
    <rect
       style="fill:#ffffff;fill-opacity:1;stroke-width:0.2;stroke-linecap:round;stroke-linejoin:miter;paint-order:normal"
       id="rect4"
       width="0.054841474"
       height="0.054841474"
       x="21.388174"
       y="4.9357328"
       ry="0.027420737" />
  </g>
</svg>
