<?xml version="1.0" encoding="UTF-8" standalone="no"?>
<!-- Created with Inkscape (http://www.inkscape.org/) -->

<svg
   width="16"
   height="16"
   viewBox="0 0 16 16"
   version="1.1"
   id="svg1"
   inkscape:version="1.4 (86a8ad7, 2024-10-11)"
   sodipodi:docname="wallet.svg"
   xmlns:inkscape="http://www.inkscape.org/namespaces/inkscape"
   xmlns:sodipodi="http://sodipodi.sourceforge.net/DTD/sodipodi-0.dtd"
   xmlns:xlink="http://www.w3.org/1999/xlink"
   xmlns="http://www.w3.org/2000/svg"
   xmlns:svg="http://www.w3.org/2000/svg">
  <sodipodi:namedview
     id="namedview1"
     pagecolor="#232323"
     bordercolor="#666666"
     borderopacity="1.0"
     inkscape:showpageshadow="2"
     inkscape:pageopacity="0.0"
     inkscape:pagecheckerboard="0"
     inkscape:deskcolor="#d1d1d1"
     inkscape:document-units="px"
     inkscape:zoom="64"
     inkscape:cx="11.929687"
     inkscape:cy="7.0703125"
     inkscape:window-width="2560"
     inkscape:window-height="1369"
     inkscape:window-x="-8"
     inkscape:window-y="-8"
     inkscape:window-maximized="1"
     inkscape:current-layer="layer1" />
  <defs
     id="defs1">
    <linearGradient
       id="linearGradient3"
       inkscape:collect="always">
      <stop
         style="stop-color:#000000;stop-opacity:1;"
         offset="0.67507887"
         id="stop3" />
      <stop
         style="stop-color:#000000;stop-opacity:0;"
         offset="1"
         id="stop4" />
    </linearGradient>
    <radialGradient
       inkscape:collect="always"
       xlink:href="#linearGradient3"
       id="radialGradient4"
       cx="14.087934"
       cy="1.435075"
       fx="14.087934"
       fy="1.435075"
       r="5.5409398"
       gradientTransform="matrix(1.0621697,0,0,1.2782963,-2.4516382,-2.0433195)"
       gradientUnits="userSpaceOnUse" />
  </defs>
  <g
     inkscape:label="Layer 1"
     inkscape:groupmode="layer"
     id="layer1">
    <rect
       style="fill:#ffffff;stroke:none;stroke-width:0.229676;stroke-linecap:round"
       id="rect1"
       width="13.093692"
       height="8.7368183"
       x="1.8983881"
       y="2.9272103"
       ry="2.7065144"
       inkscape:label="wallet back" />
    <path
       id="rect1-2"
       mask="none"
       style="display:inline;fill:url(#radialGradient4);stroke:none;stroke-width:0.277291;stroke-linecap:round"
       inkscape:label="innerShadow"
       d="M 7.6275223 -5.697869 C 7.0024877 -4.9398809 6.6264733 -3.9669956 6.6264733 -2.9033673 L 6.6269387 -0.14021786 C 6.6513233 -0.1547211 6.6741309 -0.17170532 6.7007846 -0.18263815 C 6.7370265 -0.19750326 6.777508 -0.20423059 6.815101 -0.21658861 C 6.8463796 -0.22687103 6.8754693 -0.24142603 6.9073216 -0.25053339 C 6.9415613 -0.26032449 6.97777 -0.2656273 7.0129937 -0.27317462 C 7.0539805 -0.28826167 7.0940453 -0.30513155 7.1359545 -0.31843432 C 7.2010492 -0.33909677 7.2674729 -0.3570435 7.3338471 -0.37502032 C 7.3510722 -0.37968722 7.3707666 -0.37919805 7.3866832 -0.38634094 C 7.4048862 -0.39450693 7.415224 -0.41448736 7.434712 -0.42027433 C 7.4547644 -0.42623005 7.4798057 -0.41708742 7.5009996 -0.4202914 C 7.5301284 -0.42469434 7.556717 -0.43538152 7.5845759 -0.44292694 C 7.6504079 -0.4607565 7.7183862 -0.47844724 7.7824686 -0.49951295 C 7.8137472 -0.50979536 7.8426386 -0.52477726 7.8746891 -0.53345772 C 7.8985772 -0.5399275 7.9251979 -0.53955082 7.9496211 -0.54478403 C 8.0279286 -0.56156245 8.1071095 -0.5807651 8.1782539 -0.61268496 C 8.2159731 -0.62960851 8.250044 -0.65232472 8.2877631 -0.66924819 C 8.3173783 -0.68253549 8.34994 -0.69063065 8.3799837 -0.70319297 C 8.4041016 -0.71327815 8.426733 -0.72581902 8.4501084 -0.73713205 C 8.5038345 -0.763135 8.582083 -0.80025718 8.6297422 -0.82763437 C 8.8058195 -0.928781 8.6221233 -0.84176309 8.8266647 -0.94075515 C 8.8597217 -0.95675485 8.8932033 -0.97212798 8.9275296 -0.98600916 C 8.9678436 -1.0023118 9.0116668 -1.0124787 9.0504903 -1.0312689 C 9.2658572 -1.1355026 9.1571857 -1.1050898 9.360759 -1.2348749 C 9.5412923 -1.3499716 9.4660356 -1.2801259 9.6412577 -1.3706312 C 9.703464 -1.402762 9.7528843 -1.4531583 9.8160843 -1.4837463 C 9.8549079 -1.5025364 9.8980581 -1.5139187 9.9390451 -1.529006 C 10.051759 -1.5704938 10.16323 -1.614335 10.277187 -1.6534702 C 10.277806 -1.6536826 10.56707 -1.74391 10.5673 -1.7440009 C 10.616021 -1.7633219 10.659759 -1.7909485 10.70755 -1.8118791 C 10.80528 -1.8546839 10.77292 -1.8373103 10.852606 -1.8571445 C 10.926176 -1.8754587 10.999909 -1.8934551 11.072595 -1.9137362 C 11.121625 -1.9274156 11.167365 -1.9482265 11.217652 -1.9590016 C 11.290922 -1.9747005 11.367515 -1.9816546 11.442447 -1.9929805 C 11.538518 -2.0075014 11.635302 -2.0190865 11.733531 -2.0269765 C 11.83673 -2.0352672 11.948475 -2.0365261 12.04671 -2.0609782 C 12.089819 -2.0717058 12.127962 -2.092527 12.169671 -2.1062379 C 12.19686 -2.1151762 12.225687 -2.1206869 12.253247 -2.1288734 C 12.263816 -2.1320095 12.273299 -2.1372946 12.283987 -2.1401884 C 12.335667 -2.1541862 12.389659 -2.1628296 12.442496 -2.1741502 C 12.572424 -2.2019877 12.641553 -2.2138763 12.768156 -2.2533831 C 12.810158 -2.266492 12.848995 -2.2857778 12.891117 -2.2986428 C 13.107498 -2.3647289 12.946887 -2.3047821 13.133201 -2.3552402 C 13.154572 -2.3610204 13.17195 -2.3757063 13.194682 -2.3778701 C 13.231588 -2.3813762 13.253463 -2.3620257 13.287873 -2.3552801 C 13.314523 -2.3500615 13.341282 -2.3455542 13.367612 -2.3439936 C 13.369498 -2.3438349 13.587667 -2.3441633 13.588571 -2.3440505 C 13.691229 -2.331293 13.630232 -2.3323996 13.686569 -2.2988477 C 13.702242 -2.2894812 13.719015 -2.2828692 13.735568 -2.2762463 C 13.798839 -2.2508814 13.74527 -2.2801761 13.828758 -2.2536563 C 13.834051 -2.2519426 13.83776 -2.2461161 13.84221 -2.2423528 C 13.860139 -2.2272816 13.878076 -2.2122105 13.896016 -2.1971386 C 13.905017 -2.1895991 13.9123 -2.1778706 13.922919 -2.1745315 C 13.937909 -2.169781 13.9525 -2.1812814 13.967111 -2.1745429 C 13.987779 -2.1650207 14.001058 -2.1411401 14.020917 -2.1293288 C 14.027916 -2.1251117 14.035871 -2.1332085 14.043013 -2.1293345 C 14.058166 -2.1211184 14.068667 -2.1046914 14.083368 -2.0954238 C 14.098849 -2.0856246 14.116227 -2.0810006 14.132367 -2.0728224 C 14.153407 -2.0621555 14.173764 -2.0495599 14.194818 -2.0389175 C 14.210939 -2.0307198 14.228334 -2.0261053 14.243817 -2.0163161 C 14.258527 -2.0070456 14.268479 -1.9887008 14.284171 -1.9824055 C 14.298989 -1.976492 14.313375 -1.9871782 14.328363 -1.9824169 C 14.350213 -1.9754675 14.369761 -1.9591536 14.390814 -1.948512 C 14.406936 -1.9403135 14.42326 -1.9325335 14.439813 -1.9259106 C 14.451501 -1.9211997 14.46407 -1.9207362 14.47536 -1.9146127 C 14.50638 -1.8978183 14.587246 -1.8392198 14.627164 -1.8241958 C 14.646116 -1.8170669 14.666185 -1.8214921 14.684808 -1.8129036 C 14.801968 -1.7588611 14.75251 -1.742194 14.885611 -1.6998853 C 14.91954 -1.6890972 14.953391 -1.6979648 14.987446 -1.6886045 C 15.009376 -1.6825742 15.028288 -1.6633127 15.049897 -1.6546996 C 15.057288 -1.6516983 15.064491 -1.657074 15.071993 -1.6547053 C 15.077285 -1.6529916 15.080993 -1.6471643 15.085444 -1.6434017 C 15.094444 -1.6358615 15.102018 -1.6255558 15.112347 -1.6207946 C 15.255859 -1.5545937 15.105447 -1.6480191 15.276633 -1.5756089 C 15.285214 -1.571964 15.330711 -1.5277875 15.343891 -1.5190912 C 15.59876 -1.3509709 15.292201 -1.5564645 15.468792 -1.4512814 C 15.493601 -1.4364964 15.512297 -1.4116337 15.53605 -1.3947637 C 15.570315 -1.3721512 15.604589 -1.3495497 15.638855 -1.3269481 C 15.650702 -1.3231737 15.663109 -1.3217766 15.674403 -1.3156503 C 15.694623 -1.3047211 15.707987 -1.281363 15.728209 -1.2704361 C 15.739486 -1.264288 15.752462 -1.2652646 15.763756 -1.2591382 C 15.788988 -1.2454244 15.80652 -1.2180945 15.831014 -1.2026205 C 15.861972 -1.1830249 15.896741 -1.1737784 15.929012 -1.1574178 C 15.950054 -1.1467494 15.970148 -1.1333055 15.991463 -1.1235128 C 16.014583 -1.1128812 16.03886 -1.1084442 16.062558 -1.1009171 C 16.074405 -1.0971427 16.087007 -1.0962233 16.098105 -1.0896193 C 16.113009 -1.0807801 16.123556 -1.0645478 16.13846 -1.0557087 C 16.160668 -1.042515 16.186451 -1.0437663 16.209555 -1.033113 C 16.214658 -1.0307262 16.218547 -1.0255756 16.223006 -1.0218094 C 16.230502 -1.0155228 16.282773 -0.9687358 16.290264 -0.96529171 C 16.318922 -0.95202738 16.305033 -0.9799892 16.325812 -0.95399386 C 16.337356 -0.93953834 16.345986 -0.92322229 16.357522 -0.90877401 C 16.368471 -0.89505645 16.386936 -0.8885737 16.397877 -0.87486338 C 16.406064 -0.86465482 16.407973 -0.85117012 16.416135 -0.84094707 C 16.423439 -0.83183822 16.435719 -0.82746476 16.443039 -0.81833999 C 16.451226 -0.80813142 16.453826 -0.79508833 16.461297 -0.78442367 C 16.464631 -0.77972082 16.472008 -0.77815385 16.474749 -0.77312013 C 16.478605 -0.76595701 16.474807 -0.75727948 16.479556 -0.75050736 C 16.486253 -0.74095693 16.49914 -0.73702577 16.506459 -0.72790028 C 16.514647 -0.71769171 16.517247 -0.70464862 16.524718 -0.69398396 C 16.528051 -0.68928111 16.535429 -0.68771414 16.53817 -0.68268042 C 16.542026 -0.6755173 16.541388 -0.66760765 16.542977 -0.66006765 C 16.55963 -0.63368772 16.573275 -0.60554493 16.592946 -0.58093148 C 16.609101 -0.55606384 16.641935 -0.54725537 16.660204 -0.52441377 C 16.668392 -0.5142052 16.670991 -0.50116211 16.678463 -0.49049746 C 16.694081 -0.46822035 16.767383 -0.38107868 16.782238 -0.36614712 C 16.798795 -0.34950024 16.819687 -0.33776587 16.836045 -0.32093296 C 16.869804 -0.28626443 16.894768 -0.24444977 16.926369 -0.20788617 C 16.949687 -0.1809218 16.974714 -0.15537984 16.998434 -0.12875569 C 17.03212 -0.090939266 17.094483 -0.015106125 17.129112 0.018201726 C 17.171414 0.058859868 17.218792 0.09355963 17.263628 0.13123714 C 17.286047 0.15007444 17.310011 0.16712032 17.330886 0.18775484 C 17.352201 0.20875686 17.368062 0.23470281 17.389499 0.25558178 C 17.439928 0.30473346 17.499927 0.34266974 17.550918 0.39122427 C 17.800263 0.62861513 17.473074 0.32938252 17.713307 0.58340154 C 17.7415 0.61327372 17.777602 0.63433706 17.807468 0.66252633 C 17.837659 0.69098688 17.863262 0.72401338 17.892985 0.75296035 C 17.922419 0.78161648 17.955764 0.80571117 17.987146 0.83208513 C 18.036466 0.87353097 18.085786 0.91497753 18.135113 0.95642408 C 18.157532 0.97526139 18.179947 0.99409291 18.202371 1.0129418 C 18.22479 1.0317784 18.245736 1.0528282 18.269629 1.0694595 C 18.334655 1.11483 18.314947 1.0935381 18.367627 1.1146623 C 18.377343 1.1185668 18.387038 1.1226793 18.39657 1.1273752 L 18.398653 -2.903573 C 18.398653 -5.3347234 16.440271 -7.2909739 14.00912 -7.2909739 L 11.016209 -7.2916164 C 9.6486871 -7.2916164 8.4311382 -6.6724252 7.6275223 -5.697869 z "
       transform="matrix(0.70692878,0.70728474,-0.84126747,0.54061913,0,0)" />
    <rect
       style="fill:#ffffff;stroke:none;stroke-width:0.229677;stroke-linecap:round"
       id="rect1-9"
       width="13.100648"
       height="8.7322702"
       x="2.9642479"
       y="1.987332"
       ry="2.7051058"
       transform="matrix(0.97411198,0.22606604,-0.22160283,0.97513701,0,0)"
       inkscape:label="wallet front" />
    <text
       xml:space="preserve"
       style="font-size:9.15499px;line-height:1.25;font-family:sans-serif;letter-spacing:0px;word-spacing:0px;stroke-width:0.228875"
       x="6.9515858"
       y="9.3947821"
       id="text4"
       transform="matrix(0.99066716,0.27403974,-0.26417031,0.9363456,0,0)"><tspan
         sodipodi:role="line"
         id="tspan4"
         x="6.9515858"
         y="9.3947821"
         style="stroke-width:0.228875">$</tspan></text>
  </g>
</svg>
